<svg width="48" height="21" viewBox="0 0 60 21" fill="none" xmlns="http://www.w3.org/2000/svg">
<path d="M3.19708 0H0V3.71274H3.19708C6.70356 3.71274 9.48811 6.49729 9.48811 10.0038C9.48811 13.5102 6.70356 16.2948 3.19708 16.2948H0V20.0075H3.19708C8.76619 20.0075 13.304 15.9854 13.304 10.0038C13.4071 4.02213 8.76619 0 3.19708 0ZM11.3445 20.1107H15.1604V16.3979H11.3445V20.1107ZM48.9875 10.1069L56.413 2.68142V0H53.6285L44.9654 8.66306V0H11.3445V3.71274H18.4606V20.0075H22.3796V3.81587H29.4957C28.1549 5.46598 27.433 7.63174 27.433 10.1069C27.433 16.0885 32.0739 20.1107 37.5399 20.1107H44.9654V11.4476L53.6285 20.1107H59.0944L48.9875 10.1069ZM41.0464 16.2948H37.6431C34.8585 16.2948 32.3833 14.4384 31.6614 11.8601H37.2305V8.25053H31.6614C32.4865 5.67224 34.8585 3.81587 37.6431 3.81587H41.0464V16.2948Z" fill="#565656"/>
</svg>
