<svg width="44" height="42" viewBox="0 0 44 42" fill="none" xmlns="http://www.w3.org/2000/svg">
<g clip-path="url(#clip0_2419_81)">
<path d="M14.728 38.0059L15.7111 40.8458L16.6719 38.0059H17.3491L15.9586 41.7039H15.4533L14.0508 38.0059H14.728ZM18.7052 38.0059V41.7039H18.0434V38.0059H18.7052ZM17.9884 37.0248C17.9884 36.922 18.0217 36.835 18.0881 36.7639C18.1534 36.6939 18.2503 36.6589 18.3786 36.6589C18.5081 36.6589 18.606 36.6939 18.6725 36.7639C18.7401 36.835 18.7739 36.922 18.7739 37.0248C18.7739 37.1265 18.7401 37.2118 18.6725 37.2807C18.606 37.3485 18.5081 37.3824 18.3786 37.3824C18.2503 37.3824 18.1534 37.3485 18.0881 37.2807C18.0217 37.2118 17.9884 37.1265 17.9884 37.0248ZM19.6041 39.8713V39.8237C19.6041 39.256 19.745 38.7994 20.0269 38.4538C20.3087 38.1092 20.6777 37.937 21.1338 37.937C21.5864 37.937 21.9456 38.0852 22.2114 38.3816V36.4539H22.8731V41.7039H22.2647L22.232 41.3068C21.9673 41.6164 21.5984 41.7711 21.1252 41.7711C20.6771 41.7711 20.3116 41.5961 20.0286 41.2461C19.7456 40.895 19.6041 40.4367 19.6041 39.8713ZM20.2658 39.8959C20.2658 40.3148 20.3569 40.6429 20.5391 40.8803C20.7201 41.1165 20.9705 41.2346 21.2902 41.2346C21.7107 41.2346 22.0178 41.0547 22.2114 40.6949V38.9968C22.0132 38.6479 21.7084 38.4735 21.297 38.4735C20.9728 38.4735 20.7201 38.5932 20.5391 38.8328C20.3569 39.0712 20.2658 39.4256 20.2658 39.8959ZM25.508 41.7711C24.9832 41.7711 24.5564 41.6065 24.2275 41.2773C23.8975 40.9481 23.7325 40.5078 23.7325 39.9566V39.8401C23.7325 39.4737 23.8058 39.1461 23.9525 38.8574C24.0992 38.5697 24.3048 38.3444 24.5695 38.1814C24.8331 38.0185 25.119 37.937 25.4272 37.937C25.9302 37.937 26.3215 38.095 26.6011 38.4111C26.8807 38.7283 27.0205 39.1822 27.0205 39.7728V40.0353H24.3942C24.4045 40.3996 24.5163 40.6943 24.7294 40.9196C24.9436 41.1439 25.2152 41.256 25.5441 41.256C25.7778 41.256 25.976 41.21 26.1388 41.1182C26.3015 41.0274 26.4435 40.9071 26.565 40.7572L26.9689 41.0575C26.6446 41.5332 26.1577 41.7711 25.508 41.7711ZM25.4272 38.4571C25.1591 38.4571 24.9345 38.5495 24.7534 38.7343C24.5713 38.9203 24.459 39.1806 24.4166 39.5153H26.357V39.4677C26.3387 39.1461 26.2482 38.8973 26.0855 38.7212C25.9228 38.5451 25.7033 38.4571 25.4272 38.4571ZM27.61 39.8647V39.8204C27.61 39.4584 27.6851 39.1325 27.8352 38.8426C27.9841 38.5528 28.1915 38.3296 28.4573 38.1732C28.7232 38.0157 29.0268 37.937 29.3683 37.937C29.8965 37.937 30.3233 38.1114 30.6488 38.4603C30.9742 38.8082 31.1369 39.2719 31.1369 39.8516V39.8959C31.1369 40.2557 31.0647 40.5784 30.9203 40.8639C30.7759 41.1504 30.5697 41.3735 30.3016 41.5332C30.0334 41.6918 29.7246 41.7711 29.3752 41.7711C28.8504 41.7711 28.4253 41.5972 28.0998 41.2494C27.7733 40.9005 27.61 40.4389 27.61 39.8647ZM28.2769 39.8959C28.2769 40.306 28.3766 40.6353 28.5759 40.8835C28.7753 41.1318 29.0417 41.256 29.3752 41.256C29.712 41.256 29.9796 41.1302 30.1778 40.8786C30.376 40.626 30.4752 40.2732 30.4752 39.8204C30.4752 39.4146 30.3743 39.086 30.1727 38.8344C29.971 38.5828 29.7029 38.4571 29.3683 38.4571C29.0417 38.4571 28.7782 38.5812 28.5777 38.8295C28.3771 39.0778 28.2769 39.4332 28.2769 39.8959Z" fill="#A7A7A7"/>
<path d="M46.7866 10.7625L35.0781 20.6063V42H43.2741C45.2142 42 46.7866 40.2373 46.7866 38.0625V10.7625Z" fill="url(#paint0_linear_2419_81)"/>
<path d="M-2.39062 10.7625L9.31788 20.6063V42H1.12193C-0.818173 42 -2.39062 40.2373 -2.39062 38.0625V10.7625Z" fill="url(#paint1_linear_2419_81)"/>
<path d="M35.0751 4.20001L22.1958 15.0281L9.31641 4.20001V20.6063L22.1958 31.4344L35.0751 20.6063V4.20001Z" fill="url(#paint2_linear_2419_81)"/>
<path d="M-2.39062 5.64113V10.7625L9.31788 20.6063V4.2L5.66014 1.12744C4.78903 0.395063 3.73058 0 2.64169 0C-0.137909 0 -2.39062 2.52525 -2.39062 5.64113Z" fill="url(#paint3_linear_2419_81)"/>
<path d="M46.7866 5.64113V10.7625L35.0781 20.6063V4.2L38.7359 1.12744C39.607 0.395063 40.6654 0 41.7543 0C44.5339 0 46.7866 2.52525 46.7866 5.64113Z" fill="url(#paint4_linear_2419_81)"/>
</g>
<defs>
<linearGradient id="paint0_linear_2419_81" x1="32.4425" y1="16.8643" x2="62.8789" y2="44.0159" gradientUnits="userSpaceOnUse">
<stop stop-color="#262626" stop-opacity="0"/>
<stop offset="1" stop-color="#262626" stop-opacity="0.8"/>
</linearGradient>
<linearGradient id="paint1_linear_2419_81" x1="-12.2246" y1="12.5633" x2="29.6922" y2="49.9574" gradientUnits="userSpaceOnUse">
<stop stop-color="#262626" stop-opacity="0"/>
<stop offset="1" stop-color="#262626" stop-opacity="0.8"/>
</linearGradient>
<linearGradient id="paint2_linear_2419_81" x1="7.89851" y1="-3.6238" x2="50.6836" y2="34.5438" gradientUnits="userSpaceOnUse">
<stop stop-color="#262626" stop-opacity="0"/>
<stop offset="1" stop-color="#262626" stop-opacity="0.8"/>
</linearGradient>
<linearGradient id="paint3_linear_2419_81" x1="-4.14807" y1="-1.05131" x2="24.6022" y2="24.5962" gradientUnits="userSpaceOnUse">
<stop stop-color="#262626" stop-opacity="0"/>
<stop offset="1" stop-color="#262626" stop-opacity="0.8"/>
</linearGradient>
<linearGradient id="paint4_linear_2419_81" x1="32.72" y1="2.74969" x2="51.3227" y2="19.3447" gradientUnits="userSpaceOnUse">
<stop stop-color="#262626" stop-opacity="0"/>
<stop offset="1" stop-color="#262626" stop-opacity="0.8"/>
</linearGradient>
<clipPath id="clip0_2419_81">
<rect width="44" height="42" fill="white"/>
</clipPath>
</defs>
</svg>
