<svg width="12" height="19" viewBox="0 0 12 19" fill="none" xmlns="http://www.w3.org/2000/svg">
<path d="M1.32798 17.3998L1.32816 17.4001C1.51909 17.6938 1.82338 17.875 2.15884 17.875C2.40572 17.875 2.64186 17.7756 2.82817 17.5953L2.82837 17.5951L10.5118 10.1494L10.5121 10.1491C10.751 9.91719 10.875 9.58383 10.875 9.25002C10.875 8.91643 10.7511 8.58254 10.5119 8.35065L10.5118 8.35064L2.82837 0.904932L2.82826 0.90483C2.60754 0.691102 2.31895 0.593441 2.03065 0.633944C1.74452 0.674143 1.49358 0.845033 1.32798 1.10024C1.01123 1.58838 1.06609 2.29443 1.48811 2.70341L1.48812 2.70341L8.24361 9.25002L1.48812 15.7966L1.48811 15.7966C1.06609 16.2056 1.01123 16.9117 1.32798 17.3998Z" fill="black" stroke="black" stroke-width="0.75"/>
</svg>
