<svg width="237" height="50" viewBox="0 0 237 50" fill="none" xmlns="http://www.w3.org/2000/svg">
<path d="M4.65801 38.62C1.19026 33.4148 -0.186992 27.0932 0.801176 20.9171C1.78934 14.7411 5.07023 9.16477 9.989 5.30131C14.9077 1.43786 21.1025 -0.428585 27.3369 0.0745253C33.5712 0.577637 39.3866 3.41329 43.6221 8.01551C38.8215 4.7336 29.6684 6.30286 20.9389 11.8955C28.8536 7.06221 37.2619 6.29795 40.6354 10.6146C44.5135 15.5734 40.4363 25.2399 31.5227 32.2062C22.6092 39.1725 13.57 40.4827 11.8949 35.7846C11.2789 34.0312 10.7949 31.7938 14.3962 24.7314L18.62 24.7526L19.4348 23.0448H15.1344L17.7596 17.3936C17.7596 17.3936 15.6608 17.3936 15.6412 17.4082C12.6898 20.1846 9.09489 22.1842 5.17949 23.2274L4.49668 24.8325H7.40381C4.15286 29.9395 3.15395 34.9731 4.65801 38.62Z" fill="black"/>
<path d="M50.1996 24.8521C50.199 29.8161 48.7117 34.6661 45.9296 38.7772C43.1475 42.8883 39.1975 46.0717 34.5895 47.9173C29.9813 49.763 24.926 50.1862 20.0752 49.1325C15.2243 48.0784 10.8003 45.596 7.37329 42.0047C12.8258 45.7528 23.9295 43.2025 33.7345 35.5436C43.4416 27.9613 48.6043 17.9314 46.445 11.7098C48.9037 15.6517 50.2027 20.2063 50.1929 24.8521" fill="black"/>
<path d="M222.011 36.8334L220.574 36.6803V36.742L221.731 37.1852L224.431 38.7303V39.1831L221.724 40.8031L220.572 41.2608V41.3115L222.005 41.1078H225.765V42.4473H218.54V41.1534L221.848 39.2223L222.674 38.88V38.8392L221.824 38.5281L218.542 36.6982V35.4173H225.774V36.8334H222.011Z" fill="black"/>
<path d="M225.769 31.7445H218.537V33.1606H225.769V31.7445Z" fill="black"/>
<path d="M225.478 25.004C225.647 25.2578 225.762 25.5442 225.813 25.8448C225.881 26.1905 225.915 26.542 225.915 26.8942C225.917 27.3136 225.85 27.7304 225.716 28.1278C225.579 28.5159 225.356 28.868 225.064 29.1577C224.73 29.475 224.333 29.7167 223.897 29.8666C223.336 30.0547 222.747 30.1446 222.155 30.1321C221.548 30.147 220.943 30.0487 220.371 29.8421C219.936 29.6704 219.543 29.4101 219.214 29.0779C218.929 28.7784 218.713 28.4202 218.582 28.0284C218.456 27.6555 218.39 27.265 218.388 26.8714C218.384 26.5197 218.412 26.1683 218.474 25.822C218.517 25.5798 218.584 25.3424 218.673 25.1131L219.871 25.3934C219.789 25.5731 219.734 25.7636 219.708 25.9589C219.67 26.2206 219.653 26.4848 219.657 26.7492C219.647 27.0099 219.697 27.2694 219.803 27.5078C219.909 27.7462 220.068 27.9571 220.268 28.1246C220.819 28.519 221.493 28.7049 222.168 28.6493C222.512 28.6528 222.854 28.6117 223.187 28.5271C223.472 28.4573 223.739 28.3292 223.972 28.1506C224.19 27.9825 224.367 27.7661 224.487 27.5183C224.613 27.2435 224.673 26.9436 224.665 26.6417C224.671 26.3769 224.64 26.1125 224.573 25.8562C224.521 25.6596 224.442 25.4711 224.339 25.2957L225.491 25.0105L225.478 25.004Z" fill="black"/>
<path d="M218.603 23.3414C218.572 23.1785 218.548 23.0155 218.526 22.8265C218.505 22.6374 218.486 22.4647 218.471 22.2806C218.456 22.0964 218.445 21.9188 218.435 21.7461C218.426 21.5733 218.426 21.4202 218.426 21.2719C218.424 20.9365 218.456 20.6019 218.522 20.273C218.577 19.9649 218.684 19.6684 218.838 19.3963C218.99 19.1384 219.206 18.924 219.465 18.7738C219.772 18.608 220.116 18.527 220.464 18.5391C220.978 18.5161 221.486 18.6608 221.911 18.9514C222.282 19.2264 222.554 19.6148 222.685 20.0579L223.011 19.5527L225.768 17.8971V19.5266L222.923 21.1757L222.791 21.9204H225.757V23.3365H218.597L218.603 23.3414ZM219.693 21.1708C219.693 21.3142 219.693 21.456 219.703 21.5994C219.704 21.709 219.716 21.8182 219.739 21.9253H221.838V21.324C221.853 20.9912 221.76 20.6624 221.572 20.387C221.462 20.2621 221.324 20.1651 221.169 20.1039C221.014 20.0427 220.847 20.0191 220.681 20.0351C220.546 20.0274 220.412 20.0494 220.287 20.0996C220.162 20.1497 220.049 20.2267 219.957 20.3251C219.769 20.565 219.676 20.8665 219.698 21.1708H219.693Z" fill="black"/>
<path d="M222.151 16.9996C221.16 17.0639 220.177 16.7829 219.369 16.2044C219.042 15.9272 218.782 15.5775 218.613 15.183C218.443 14.7885 218.368 14.3599 218.392 13.9312C218.381 13.4648 218.473 13.0017 218.662 12.5754C218.834 12.1965 219.099 11.867 219.431 11.6172C219.784 11.3472 220.188 11.153 220.619 11.0469C221.122 10.9194 221.639 10.8575 222.158 10.8627C223.152 10.7972 224.138 11.0802 224.946 11.6628C225.274 11.9388 225.533 12.2875 225.703 12.6813C225.873 13.0751 225.948 13.5031 225.924 13.9312C225.935 14.4002 225.844 14.8662 225.658 15.2967C225.486 15.674 225.223 16.0031 224.894 16.2549C224.538 16.5184 224.135 16.7105 223.706 16.8204C223.201 16.9503 222.682 17.0139 222.161 17.0094L222.151 16.9996ZM222.151 15.5118C222.489 15.5146 222.827 15.484 223.16 15.4206C223.437 15.3695 223.704 15.2731 223.95 15.1354C224.16 15.0162 224.338 14.8486 224.47 14.6465C224.641 14.3372 224.694 13.9766 224.62 13.6311C224.546 13.2856 224.35 12.9784 224.068 12.766C223.483 12.4447 222.817 12.3014 222.151 12.3537C221.823 12.3527 221.496 12.3816 221.173 12.4401C220.895 12.493 220.626 12.5858 220.373 12.7155C220.158 12.832 219.974 12.9999 219.839 13.2044C219.709 13.4263 219.643 13.6804 219.65 13.9377C219.642 14.1686 219.693 14.3977 219.8 14.6029C219.906 14.8081 220.063 14.9825 220.256 15.1093C220.833 15.4263 221.49 15.5695 222.146 15.5216L222.151 15.5118Z" fill="black"/>
<path d="M232.138 11.2768H230.981V14.3404H230.527V11.2768H229.387V10.8694H232.144L232.138 11.2768Z" fill="black"/>
<path d="M236.302 14.3404H235.864V11.4349L234.855 14.3404H234.443L233.454 11.3844L233.444 14.3404H232.996V10.8694H233.683L234.51 13.3252C234.51 13.3252 234.546 13.4278 234.601 13.6152C234.632 13.689 234.654 13.7661 234.668 13.845L234.862 13.2844L235.693 10.8694H236.304L236.302 14.3404Z" fill="black"/>
<path d="M121.095 10.8628H143.746V16.1116H127.872V23.5407H142.478V28.7846H127.872V37.1979H144.225V42.4436H121.095V10.8628Z" fill="black"/>
<path d="M169.031 42.4436L157.438 21.4435L157.352 21.5348V42.4436H151.013V10.8628H159.403L170.931 31.4961L171.022 31.41V10.8628H177.356V42.4436H169.031Z" fill="black"/>
<path d="M195.336 10.8628H184.581V42.4467H195.336C205.186 42.5331 211.305 37.6316 211.305 26.6548C211.305 15.6782 205.185 10.77 195.336 10.8677M194.866 37.1979H191.368V16.356H194.874C202.916 16.2648 204.103 21.6195 204.103 26.6499C204.103 31.6803 202.915 37.2908 194.874 37.193" fill="black"/>
<path d="M57.4246 10.8628H83.0085V16.1116H73.606V42.4436H66.827V16.1116H57.4246V10.8628Z" fill="black"/>
<path d="M109.026 29.0763C110.8 28.418 112.33 27.2309 113.408 25.6753C114.486 24.1196 115.061 22.2705 115.055 20.3778C115.054 19.9104 115.02 19.4437 114.952 18.9812C114.76 17.5798 114.24 16.2432 113.435 15.0799C112.631 13.9166 111.563 12.9593 110.319 12.2854C110.013 12.0915 108.026 10.8628 102.155 10.8628C102.038 10.8628 101.926 10.8628 101.813 10.8628H88.4116V42.4485H95.1838V29.9009H102.354C104.26 33.9803 105.929 38.1658 107.354 42.4371H115.685L109.04 29.0747L109.026 29.0763ZM95.1743 16.2192H103.175C105.861 16.2599 107.542 17.2279 107.844 19.4783V19.519C107.854 19.5956 107.859 19.682 107.865 19.7537C107.871 19.8254 107.875 19.9166 107.88 19.9883V20.2865C107.854 23.0274 106.112 24.4859 103.17 24.5233H95.1693V16.2241L95.1743 16.2192Z" fill="black"/>
</svg>
