<svg width="243" height="90" viewBox="0 0 243 90" fill="none" xmlns="http://www.w3.org/2000/svg">
<g clip-path="url(#clip0_3434_11044)">
<mask id="mask0_3434_11044" style="mask-type:luminance" maskUnits="userSpaceOnUse" x="47" y="15" width="150" height="60">
<path d="M196.427 15H47.1731V74.873H196.427V15Z" fill="white"/>
</mask>
<g mask="url(#mask0_3434_11044)">
<path d="M47.1731 70.704H76.1929V74.8582H47.1731V70.704Z" fill="black"/>
<path d="M47.1731 62.7358H76.1929V66.9046H47.1731V62.7358Z" fill="black"/>
<path d="M55.4519 54.7822H67.8995V58.9512H55.4519V54.7822Z" fill="black"/>
<path d="M55.4519 46.8288H67.8995V50.9978H55.4519V46.8288Z" fill="black"/>
<path d="M55.4519 38.8752H67.8995V43.0442H55.4519V38.8752Z" fill="black"/>
<path d="M55.4519 30.907H67.8995V35.076H55.4519V30.907Z" fill="black"/>
<path d="M76.1929 22.9535H47.1731V27.1224H76.1929V22.9535Z" fill="black"/>
<path d="M76.1929 15H47.1731V19.169H76.1929V15Z" fill="black"/>
<path d="M80.3323 66.9046H124.963C125.717 65.6185 126.279 64.214 126.619 62.7357H80.3323V66.9046Z" fill="black"/>
<path d="M121.49 46.8288H88.626V50.9978H124.964C124.017 49.401 122.85 47.9967 121.49 46.8288Z" fill="black"/>
<path d="M88.626 38.8752V43.0442H121.49C122.879 41.8763 124.047 40.4718 124.964 38.8752H88.626Z" fill="black"/>
<path d="M124.964 22.9535H80.3323V27.1224H126.619C126.235 25.6441 125.673 24.2397 124.964 22.9535Z" fill="black"/>
<path d="M111.245 15H80.3323V19.169H121.903C119.124 16.5966 115.354 15 111.245 15Z" fill="black"/>
<path d="M101.059 30.907H88.626V35.076H101.059V30.907Z" fill="black"/>
<path d="M113.506 35.076H126.516C126.885 33.7455 127.078 32.341 127.078 30.907H113.506V35.076Z" fill="black"/>
<path d="M88.626 54.7822H101.059V58.9512H88.626V54.7822Z" fill="black"/>
<path d="M113.506 54.7822V58.9512H127.078C127.078 57.5172 126.885 56.1128 126.516 54.7822H113.506Z" fill="black"/>
<path d="M80.3323 74.8286L111.245 74.873C115.384 74.873 119.124 73.2764 121.918 70.704H80.3323V74.8286Z" fill="black"/>
<path d="M130.094 70.704H150.82V74.8582H130.094V70.704Z" fill="black"/>
<path d="M130.094 62.7358H150.82V66.9046H130.094V62.7358Z" fill="black"/>
<path d="M138.372 54.7822H150.82V58.9512H138.372V54.7822Z" fill="black"/>
<path d="M138.372 46.8288H150.82V50.9978H138.372V46.8288Z" fill="black"/>
<path d="M156.585 22.9535H130.094V27.1224H158.019L156.585 22.9535Z" fill="black"/>
<path d="M153.836 15H130.094V19.169H155.27L153.836 15Z" fill="black"/>
<path d="M175.686 70.704H196.427V74.8582H175.686V70.704Z" fill="black"/>
<path d="M175.686 62.7358H196.427V66.9046H175.686V62.7358Z" fill="black"/>
<path d="M175.686 54.7822H188.133V58.9512H175.686V54.7822Z" fill="black"/>
<path d="M175.686 46.8288H188.133V50.9978H175.686V46.8288Z" fill="black"/>
<path d="M175.686 43.0442H188.133V38.8752H175.686H164.421L163.253 42.246L162.085 38.8752H150.82H138.372V43.0442H150.82V39.2152L152.136 43.0442H174.37L175.686 39.2152V43.0442Z" fill="black"/>
<path d="M188.133 30.907H167.17L165.736 35.076H188.133V30.907Z" fill="black"/>
<path d="M172.685 15L171.25 19.169H196.427V15H172.685Z" fill="black"/>
<path d="M163.253 74.8286L164.687 70.704H161.819L163.253 74.8286Z" fill="black"/>
<path d="M160.503 66.9046H166.003L167.481 62.7358H159.04L160.503 66.9046Z" fill="black"/>
<path d="M157.709 58.9512H168.797L170.26 54.7822H156.245L157.709 58.9512Z" fill="black"/>
<path d="M154.93 50.9978H171.591L173.01 46.8288H153.496L154.93 50.9978Z" fill="black"/>
<path d="M138.372 35.076H160.769L159.335 30.907H138.372V35.076Z" fill="black"/>
<path d="M168.501 27.1224H196.427V22.9535H169.92L168.501 27.1224Z" fill="black"/>
</g>
</g>
<defs>
<clipPath id="clip0_3434_11044">
<rect width="149.254" height="60" fill="white" transform="translate(47.1731 15)"/>
</clipPath>
</defs>
</svg>
