<svg width="20" height="21" viewBox="0 0 20 21" fill="none" xmlns="http://www.w3.org/2000/svg">
<path d="M5.0668 7.38532L5.06661 7.38544C4.87083 7.51273 4.75 7.71559 4.75 7.93922C4.75 8.10381 4.81627 8.26124 4.93647 8.38545L4.93659 8.38558L9.90039 13.5079L9.90057 13.5081C10.0552 13.6673 10.2774 13.75 10.5 13.75C10.7224 13.75 10.945 13.6674 11.0996 13.5079L11.0996 13.5079L16.0634 8.38558L16.0634 8.38551C16.2059 8.23836 16.271 8.04597 16.244 7.85377C16.2172 7.66301 16.1033 7.49572 15.9332 7.38532C15.6077 7.17415 15.137 7.21073 14.8644 7.49208L14.8644 7.49208L10.5 11.9957L6.13558 7.49208L6.13558 7.49208C5.86292 7.21073 5.39222 7.17415 5.0668 7.38532ZM5.11613 8.2116C5.03806 8.13093 5 8.03476 5 7.93922C5 7.80984 5.06956 7.68172 5.20288 7.59504C5.43494 7.44446 5.7721 7.47625 5.95605 7.66606L10.3259 12.1754L5.11613 8.2116Z" fill="white" stroke="white" stroke-width="0.5"/>
</svg>
