<svg width="224" height="32" viewBox="0 0 224 32" fill="none" xmlns="http://www.w3.org/2000/svg">
<path d="M146 20.2129H150.113C150.323 24.7105 153.613 26.688 160.56 26.688C166.563 26.688 169.835 25.2005 169.835 21.9804C169.835 13.4053 147.05 21.2279 147.26 8.52267C147.4 2.53755 152.51 0 160.175 0C168.54 0 173.038 3.01006 173.353 9.25768H169.275C168.82 5.49511 165.775 4.14758 160.053 4.14758C155.258 4.14758 151.688 5.0926 151.67 8.26016C151.583 16.4328 174.263 9.29268 174.263 21.8404C174.263 28.0181 169.153 30.8531 160.315 30.8531C150.708 30.8356 146.438 27.423 146 20.2129Z" fill="white"/>
<path d="M54.4328 26.7405C62.6405 26.7405 66.4031 22.6804 66.4031 15.4353C66.4031 8.19016 62.6405 4.13008 54.4328 4.13008C46.2252 4.13008 42.4101 8.15516 42.4101 15.4353C42.4101 22.7154 46.2252 26.7405 54.4328 26.7405ZM38 15.4353C38 5.72261 43.5301 0 54.4328 0C65.3355 0 70.8306 5.74011 70.8306 15.4353C70.8306 25.1305 65.3005 30.8706 54.3978 30.8706C43.4601 30.8356 38 25.113 38 15.4353Z" fill="white"/>
<path d="M17.6128 26.008C25.488 26.008 28.0955 21.9829 28.0955 15.5953C28.0955 9.20766 25.4705 5.18258 17.6128 5.18258H7.13008V26.0255H17.6128V26.008ZM3 1H17.6128C28.4105 1 32.5231 6.65261 32.5231 15.5953C32.5231 24.5205 28.4105 30.1906 17.6128 30.1906H3V1Z" fill="white"/>
<path d="M90.6128 26.008C98.488 26.008 101.095 21.9829 101.095 15.5953C101.095 9.20766 98.4705 5.18258 90.6128 5.18258H80.1301V26.0255H90.6128V26.008ZM76 1H90.6128C101.411 1 105.523 6.65261 105.523 15.5953C105.523 24.5205 101.411 30.1906 90.6128 30.1906H76V1Z" fill="white"/>
<path d="M111 19.0604V1H115.113V18.8328C115.113 23.6279 118.14 26.9005 125.665 26.9005C133.19 26.9005 136.113 23.6279 136.113 18.8328V1H140.226V19.0604C140.226 26.3755 135.675 31.0306 125.578 31.0306C115.603 30.9956 111 26.3405 111 19.0604Z" fill="white"/>
<path d="M185.441 1.09199L182.533 4L210.091 31.558L212.999 28.65L185.441 1.09199Z" fill="white"/>
<path d="M210.085 10.3232L200.408 20L203.316 22.908L212.993 13.2312L210.085 10.3232Z" fill="white"/>
<path d="M192.218 10.3232L182.541 20L185.449 22.908L195.126 13.2312L192.218 10.3232Z" fill="white"/>
</svg>
