<svg width="201" height="59" viewBox="0 0 201 59" fill="none" xmlns="http://www.w3.org/2000/svg">
<g clip-path="url(#clip0_3434_11034)">
<path d="M11.9226 49.0049C5.09591 42.6204 4.72312 31.8979 11.0839 25.0456C17.4446 18.1934 28.1275 17.8193 34.9543 24.2038H42.0489C41.9791 24.0869 41.8975 23.9815 41.8276 23.8763C40.2199 21.4793 38.1696 19.4212 35.7814 17.8076C29.5138 13.5513 21.522 12.7795 14.5555 15.7379C10.5596 17.4334 7.14627 20.2632 4.71147 23.8763C0.482606 30.1672 -0.286282 38.177 2.66111 45.1695C4.35033 49.1802 7.16957 52.6181 10.7694 55.0503C14.4623 57.5525 18.8193 58.8973 23.2812 58.8855C26.2752 58.8973 29.2342 58.2893 31.9952 57.12C35.9911 55.4244 39.4161 52.5947 41.8393 48.9815C41.9674 48.7827 42.1072 48.584 42.2354 48.3734H35.595C29.1876 55.0268 18.6679 55.3075 11.9226 49.0049Z" fill="black"/>
<path d="M198.576 34.5986C197.259 31.4765 195.069 28.7988 192.261 26.9045C189.384 24.9518 185.994 23.911 182.522 23.9227C180.193 23.9227 177.886 24.3905 175.742 25.3025C172.632 26.6239 169.964 28.8222 168.077 31.6402C164.78 36.5397 164.174 42.7721 166.469 48.2211C167.785 51.3432 169.976 54.0209 172.783 55.9152C177.664 59.2243 183.873 59.8324 189.302 57.5288C192.412 56.2075 195.069 54.0092 196.968 51.1912C200.264 46.28 200.871 40.0359 198.576 34.5986ZM182.488 53.5531C175.788 53.5415 170.348 48.0925 170.348 41.3689C170.348 34.6337 175.788 29.1847 182.488 29.1847C189.198 29.1847 194.626 34.6454 194.626 41.3689C194.626 48.0925 189.198 53.5531 182.488 53.5531Z" fill="black"/>
<path d="M77.9882 23.9233C68.7266 23.6894 61.0378 31.0444 60.8048 40.3287C60.7931 40.6912 60.7931 41.0538 60.8164 41.4162C60.8164 51.6594 68.1791 58.9793 79.223 58.9793C84.3257 59.2249 89.2651 57.1786 92.7135 53.4017L89.3001 49.3793C86.7721 52.1505 83.1607 53.6589 79.4211 53.5303C72.641 53.5303 67.7946 49.5079 67.0258 43.4858H94.7871C94.8571 42.9012 94.9153 42.1295 94.9153 41.6032C94.9153 31.0561 87.8788 23.9233 77.9882 23.9233ZM67.0141 39.0308C67.4685 33.3363 72.3031 28.9981 77.9882 29.1852C83.6733 29.0098 88.508 33.3363 88.9623 39.0308H67.0141Z" fill="black"/>
<path d="M61.7142 23.9226C55.7145 23.9226 51.4508 25.9924 49.2489 30.0148V24.2501H43.3076V58.6045H49.5053V41.4858C49.5053 33.9671 53.6409 29.8862 60.2929 29.8862C60.7705 29.8745 61.2365 29.8979 61.7142 29.9563V23.9226Z" fill="black"/>
<path d="M148.376 53.7406C144.963 53.7406 143.868 51.6708 143.868 47.9759V29.3721H153.677V24.2505H143.856V14.1709H137.658V24.2505H135.527V29.3721H137.658V48.2331C137.658 55.1671 140.746 58.9908 147.654 58.9908C150.089 59.0843 152.477 58.2191 154.295 56.5937L152.36 52.1269C151.312 53.1793 149.879 53.7523 148.376 53.7406Z" fill="black"/>
<path d="M162.788 24.2501H156.59V58.5929H162.788V24.2501Z" fill="black"/>
<path d="M126.568 29.0326C125.788 28.2492 124.937 27.5243 124.005 26.9045C121.128 24.9518 117.738 23.911 114.266 23.9227C111.936 23.9227 109.63 24.3905 107.486 25.3025C104.376 26.6239 101.708 28.8222 99.8208 31.6402C96.5235 36.5397 95.9177 42.7721 98.2127 48.2211C99.5288 51.3432 101.72 54.0209 104.527 55.9152C109.408 59.2243 115.617 59.8324 121.046 57.5288C123.12 56.6518 124.984 55.3656 126.568 53.7871V58.6163H131.916V24.2502H126.568V29.0326ZM114.242 53.5531C107.544 53.5415 102.104 48.0925 102.104 41.3689C102.104 34.6337 107.544 29.1847 114.242 29.1847C120.953 29.1847 126.382 34.6454 126.382 41.3689C126.382 48.0925 120.942 53.5531 114.242 53.5531Z" fill="black"/>
<path d="M173.679 13.9256L149.693 19.5149L156.834 13.9256L127.57 -0.000946045L173.679 13.9256Z" fill="black"/>
<path d="M173.679 13.9256H156.834L127.57 -0.000946045L173.679 13.9256Z" fill="black"/>
</g>
<defs>
<clipPath id="clip0_3434_11034">
<rect width="199.617" height="59" fill="white" transform="translate(0.891602)"/>
</clipPath>
</defs>
</svg>
