<svg width="245" height="90" viewBox="0 0 245 90" fill="none" xmlns="http://www.w3.org/2000/svg">
<g clip-path="url(#clip0_3434_10870)">
<path d="M101.954 29.4073V60.5931H96.5397V36.121H96.4675L86.7941 60.5931H83.1847L73.2947 36.121H73.2225V60.5931H68.2415V29.4073H76.0379L84.9894 52.5079H85.1338L94.5906 29.4073H101.954ZM106.43 31.7896C106.43 30.9233 106.718 30.2014 107.368 29.6239C108.018 29.0464 108.74 28.7576 109.606 28.7576C110.544 28.7576 111.338 29.0464 111.916 29.6239C112.494 30.2014 112.854 30.9233 112.854 31.7896C112.854 32.6559 112.566 33.3778 111.916 33.9553C111.266 34.5328 110.544 34.8216 109.606 34.8216C108.667 34.8216 107.946 34.5328 107.368 33.9553C106.791 33.3056 106.43 32.5837 106.43 31.7896ZM112.277 38.2144V60.5931H107.007V38.2144H112.277ZM128.231 56.7671C129.025 56.7671 129.891 56.6227 130.83 56.1896C131.768 55.8286 132.634 55.3233 133.428 54.7458V59.6547C132.562 60.16 131.624 60.521 130.541 60.7375C129.458 60.9541 128.303 61.0985 127.004 61.0985C123.683 61.0985 121.012 60.0878 118.991 57.9943C116.897 55.9008 115.886 53.2298 115.886 50.0535C115.886 46.444 116.969 43.4843 119.063 41.1742C121.156 38.8642 124.116 37.7091 128.014 37.7091C129.025 37.7091 130.036 37.8535 130.974 38.0701C131.985 38.2866 132.779 38.6476 133.356 38.9363V43.9896C132.562 43.4121 131.696 42.9068 130.902 42.618C130.036 42.3292 129.169 42.1127 128.303 42.1127C126.209 42.1127 124.549 42.7624 123.25 44.134C121.95 45.5056 121.373 47.3103 121.373 49.6204C121.373 51.8582 122.023 53.663 123.25 54.8902C124.477 56.1174 126.137 56.7671 128.231 56.7671ZM148.372 37.8535C148.805 37.8535 149.166 37.8535 149.527 37.9257C149.888 37.9979 150.176 38.0701 150.393 38.1423V43.4843C150.104 43.2677 149.743 43.0511 149.166 42.9068C148.588 42.7624 148.011 42.618 147.217 42.618C145.917 42.618 144.834 43.1955 143.968 44.2784C143.102 45.3612 142.596 47.0215 142.596 49.3316V60.5931H137.327V38.2144H142.596V41.7517H142.669C143.174 40.5245 143.896 39.586 144.834 38.8642C145.845 38.2144 147 37.8535 148.372 37.8535ZM150.682 49.7647C150.682 46.0831 151.765 43.1233 153.786 40.9576C155.879 38.792 158.767 37.7091 162.449 37.7091C165.914 37.7091 168.657 38.7198 170.606 40.8133C172.555 42.9068 173.566 45.7221 173.566 49.2594C173.566 52.8689 172.483 55.7565 170.462 57.9221C168.368 60.0878 165.553 61.1707 161.943 61.1707C158.478 61.1707 155.735 60.16 153.714 58.1387C151.692 56.0452 150.682 53.2298 150.682 49.7647ZM156.168 49.5482C156.168 51.8582 156.673 53.663 157.756 54.8902C158.839 56.1174 160.355 56.7671 162.304 56.7671C164.181 56.7671 165.697 56.1896 166.708 54.8902C167.718 53.663 168.224 51.8582 168.224 49.4038C168.224 47.0216 167.718 45.2168 166.708 43.9174C165.697 42.6902 164.181 42.0405 162.376 42.0405C160.427 42.0405 158.983 42.6902 157.901 43.9896C156.673 45.3612 156.168 47.1659 156.168 49.5482ZM181.434 44.134C181.434 44.8559 181.651 45.5056 182.156 45.9387C182.662 46.3718 183.672 46.8772 185.333 47.5269C187.426 48.3931 188.942 49.3316 189.736 50.3423C190.602 51.4251 191.036 52.6523 191.036 54.1683C191.036 56.2618 190.241 57.9221 188.581 59.2215C186.993 60.521 184.755 61.0985 182.012 61.0985C181.073 61.0985 180.063 60.9541 178.908 60.7375C177.753 60.521 176.814 60.2322 176.02 59.8713V54.6736C176.959 55.3233 178.041 55.9008 179.124 56.2618C180.207 56.6227 181.218 56.8393 182.156 56.8393C183.311 56.8393 184.25 56.6949 184.755 56.334C185.333 55.973 185.621 55.4677 185.621 54.6736C185.621 53.9517 185.333 53.3742 184.755 52.7967C184.178 52.2914 183.023 51.7139 181.434 51.0642C179.485 50.2701 178.114 49.3316 177.32 48.321C176.525 47.3103 176.092 46.0109 176.092 44.4227C176.092 42.4014 176.886 40.7411 178.475 39.4417C180.063 38.1423 182.156 37.4926 184.683 37.4926C185.477 37.4926 186.343 37.5647 187.282 37.7813C188.22 37.9979 189.086 38.2144 189.736 38.431V43.5565C189.014 43.1233 188.22 42.6902 187.282 42.3292C186.343 41.9683 185.405 41.8239 184.538 41.8239C183.528 41.8239 182.734 42.0405 182.228 42.4014C181.723 42.9068 181.434 43.4121 181.434 44.134ZM193.273 49.7647C193.273 46.0831 194.356 43.1233 196.378 40.9576C198.471 38.792 201.359 37.7091 205.04 37.7091C208.505 37.7091 211.249 38.7198 213.198 40.8133C215.147 42.9068 216.157 45.7221 216.157 49.2594C216.157 52.8689 215.075 55.7565 213.053 57.9221C210.96 60.0878 208.144 61.1707 204.535 61.1707C201.07 61.1707 198.327 60.16 196.305 58.1387C194.356 56.0452 193.273 53.2298 193.273 49.7647ZM198.76 49.5482C198.76 51.8582 199.265 53.663 200.348 54.8902C201.431 56.1174 202.947 56.7671 204.896 56.7671C206.773 56.7671 208.289 56.1896 209.299 54.8902C210.31 53.663 210.815 51.8582 210.815 49.4038C210.815 47.0216 210.31 45.2168 209.299 43.9174C208.289 42.6902 206.773 42.0405 204.968 42.0405C203.019 42.0405 201.575 42.6902 200.492 43.9896C199.337 45.3612 198.76 47.1659 198.76 49.5482ZM233.699 42.5458H225.831V60.5931H220.489V42.5458H216.735V38.2144H220.489V35.1103C220.489 32.8002 221.283 30.8511 222.799 29.3352C224.315 27.8192 226.264 27.0973 228.646 27.0973C229.296 27.0973 229.873 27.1695 230.379 27.1695C230.884 27.1695 231.317 27.3139 231.678 27.4582V32.0062C231.534 31.934 231.173 31.7896 230.74 31.6452C230.307 31.5008 229.801 31.4287 229.224 31.4287C228.141 31.4287 227.275 31.7896 226.697 32.4393C226.12 33.089 225.831 34.1718 225.831 35.4713V38.1423H233.699V33.089L238.969 31.5008V38.1423H244.311V42.4736H238.969V52.9411C238.969 54.3127 239.258 55.2511 239.691 55.8286C240.197 56.4062 240.991 56.6949 242.073 56.6949C242.362 56.6949 242.723 56.6227 243.156 56.4784C243.589 56.334 243.95 56.1896 244.239 55.973V60.3044C243.878 60.521 243.373 60.6653 242.579 60.8097C241.785 60.9541 241.063 61.0263 240.269 61.0263C238.031 61.0263 236.37 60.4488 235.288 59.2937C234.205 58.1387 233.627 56.334 233.627 53.9517L233.699 42.5458Z" fill="black"/>
<path d="M25.2889 19.0118H0.600098V43.7006H25.2889V19.0118Z" fill="black"/>
<path d="M52.5765 19.012H27.8877V43.7007H52.5765V19.012Z" fill="black"/>
<path d="M25.2889 46.2994H0.600098V70.9881H25.2889V46.2994Z" fill="black"/>
<path d="M52.5765 46.2994H27.8877V70.9881H52.5765V46.2994Z" fill="black"/>
</g>
<defs>
<clipPath id="clip0_3434_10870">
<rect width="244" height="51.9763" fill="white" transform="translate(0.600098 19.0118)"/>
</clipPath>
</defs>
</svg>
