<?xml version="1.0" encoding="utf-8"?><svg viewBox="0 0 502.66 502.66" xmlns="http://www.w3.org/2000/svg" xmlns:xlink="http://www.w3.org/1999/xlink"><style>:root>svg{display:none}:root>svg:target{display:block}</style><svg viewBox="0 0 256 256" id="avion" xmlns="http://www.w3.org/2000/svg"><path d="M128 0a346.01 346.01 0 0 1 18.483 55.828c1.183 4.721 1.997 9.513 3.047 14.244.737 4.788 1.725 9.534 2.17 14.347 1.398 9.564 1.818 19.215 1.89 28.81.02 19.077-3.707 38.072-11.49 55.552-7.833 17.341-19.353 33.382-34.442 46.141-34.166-1.29-61.578-29.409-61.578-63.882 0-35.292 28.708-64 64-64 5.432 0 11.008.758 16.589 2.258a5.115 5.115 0 0 0 6.451-4.946v-21.11a5.12 5.12 0 0 0-4.096-5.017 95.642 95.642 0 0 0-18.944-1.905c-52.23 0-94.72 42.49-94.72 94.72s42.49 94.72 94.72 94.72 94.72-42.49 94.72-94.72c0-7.982-1.106-16.18-3.277-24.361a5.1 5.1 0 0 0-4.94-3.799H175.18a5.12 5.12 0 0 0-4.833 6.83c2.478 6.974 3.732 14.157 3.732 21.33 0 35.292-28.708 64-64 64-.799 0-1.572-.092-2.355-.118 17.561-9.318 31.83-24.806 41.513-42.614 4.992-8.929 8.438-18.677 10.972-28.6 2.355-9.984 3.456-20.224 3.61-30.438a203.873 203.873 0 0 0-2.182-27.69c.103-.015.205.021.302 0 .666-.143 14.372-3.087 37.612-16.721-4.275 7.383-11.807 16.348-24.873 22.86a5.11 5.11 0 0 0-2.8 4.045 5.11 5.11 0 0 0 1.884 4.537c.378.297 9.19 7.23 25.139 7.23l.86-.011c19.046-.297 39.199-19.66 40.868-56.08 1.208-26.403-5.494-42.608-5.78-43.289a5.1 5.1 0 0 0-3.718-3.01 5.1 5.1 0 0 0-4.603 1.372c-.077.076-7.977 7.7-25.856 14.515-3.133 1.193-6.123 2.288-8.944 3.323-15.493 5.678-26.676 9.784-32.277 19.087-2.36 3.922-3.568 8.786-4.214 13.701-.353-1.152-.69-2.314-1.07-3.46C148.06 34.58 139.546 16.22 128 0zm99.461 18.75c1.659 6.558 3.615 17.704 2.95 32.21-1.537 33.412-19.713 46.151-30.813 46.32a38.364 38.364 0 0 1-11.668-1.449c23.09-15.626 26.88-37.678 27.038-38.702a5.11 5.11 0 0 0-7.89-5.059c-19.927 13.282-34.508 19.334-41.85 21.868-.681-7.654-.728-19.046 2.99-25.216 3.742-6.216 13.516-9.795 27.043-14.761 2.863-1.05 5.878-2.16 9.047-3.369 10.809-4.122 18.392-8.55 23.153-11.843zM110.08 66.56c4.275 0 8.566.317 12.8.973v10.43a72.3 72.3 0 0 0-12.8-1.163c-40.934 0-74.24 33.306-74.24 74.24s33.306 74.24 74.24 74.24 74.24-33.306 74.24-74.24c0-6.01-.748-12.017-2.243-17.92h10.47a83.098 83.098 0 0 1 2.013 17.92c0 46.582-37.898 84.48-84.48 84.48S25.6 197.622 25.6 151.04s37.898-84.48 84.48-84.48z" font-family="none" font-weight="none" font-size="none" text-anchor="none"/><path d="M73.784 165.346v2.08h-15.91v-2.08c1.72-.767 3.44-1.34 5.16-1.72l18.14-47.24h2.07l18.14 47.24a55.9 55.9 0 0 1 2.83.65c.933.233 1.807.59 2.62 1.07v2.08h-18.35v-2.08c.953-.38 1.933-.713 2.94-1 1-.287 1.98-.527 2.94-.72l-4.88-13.12h-17.13l-4.73 13.12c2.007.287 4.06.86 6.16 1.72zm5.52-33.62-5.52 15.06h14.48l-5.66-15.2-1.36-6.16h-.15zm42.65 35.7-3.22.86-13.98-33.12a20.667 20.667 0 0 1-3.8-1.72v-1.86h14.98v1.79c-.62.333-1.253.657-1.9.97-.647.313-1.373.587-2.18.82l8.31 21.58 1.43 4.44h.15l1.07-4.51 7.67-21.51a12.236 12.236 0 0 1-2.11-.71 11.864 11.864 0 0 1-1.83-1.01v-1.86h12.19v1.86c-.48.34-1.067.653-1.76.94-.693.287-1.47.547-2.33.78z" font-family="none" font-weight="none" font-size="none" text-anchor="none"/></svg><svg viewBox="0 0 28 28" id="cross" xmlns="http://www.w3.org/2000/svg"><path d="m18.474 15.877-2.587 2.588 8.592 8.592 2.588-2.587-8.593-8.593ZM2.595.002.008 2.59 8.6 11.182l2.588-2.587L2.595.002Zm5.997 15.885L0 24.48l2.587 2.587 8.593-8.592-2.588-2.588ZM24.475 0l-8.592 8.592 2.587 2.587 8.593-8.592L24.475 0Z"/></svg><svg viewBox="0 0 60 21" id="dtek" xmlns="http://www.w3.org/2000/svg"><path d="M3.197 0H0v3.713h3.197a6.25 6.25 0 0 1 6.291 6.29 6.25 6.25 0 0 1-6.29 6.292H0v3.712h3.197c5.57 0 10.107-4.022 10.107-10.003C13.407 4.022 8.766 0 3.197 0Zm8.148 20.11h3.815v-3.712h-3.816v3.713Zm37.642-10.003 7.426-7.426V0h-2.784l-8.664 8.663V0h-33.62v3.713h7.116v16.294h3.919V3.817h7.116c-1.341 1.65-2.063 3.816-2.063 6.29 0 5.982 4.64 10.005 10.107 10.005h7.425v-8.663l8.663 8.663h5.466L48.987 10.107Zm-7.94 6.188h-3.404c-2.785 0-5.26-1.857-5.982-4.435h5.57V8.25h-5.57c.825-2.578 3.197-4.434 5.982-4.434h3.403v12.479Z"/></svg><svg viewBox="0 0 502.664 502.664" xml:space="preserve" id="icon" xmlns="http://www.w3.org/2000/svg"><path d="M153.821 358.226 0 274.337v-46.463l153.821-83.414v54.574L46.636 250.523l107.185 53.431v54.272zm26.273 29.358L282.103 115.08h32.227L212.084 387.584h-31.99zm168.749-29.358v-54.272l107.164-52.999-107.164-52.59v-53.927l153.821 83.522v46.183l-153.821 84.083z"/></svg><svg viewBox="0 0 44 42" id="mvideo" xmlns="http://www.w3.org/2000/svg"><g clip-path="url(#ea)"><path d="m14.728 38.006.983 2.84.96-2.84h.678l-1.39 3.698h-.506l-1.402-3.698h.677Zm3.977 0v3.698h-.662v-3.698h.662Zm-.717-.981a.37.37 0 0 1 .1-.261c.065-.07.162-.105.29-.105.13 0 .228.035.294.105a.365.365 0 0 1 .102.26.351.351 0 0 1-.102.257c-.066.068-.164.101-.293.101-.129 0-.226-.033-.29-.101a.355.355 0 0 1-.1-.256Zm1.616 2.846v-.047c0-.568.141-1.025.423-1.37a1.36 1.36 0 0 1 1.107-.517c.452 0 .812.148 1.077.445v-1.928h.662v5.25h-.608l-.033-.397c-.265.31-.634.464-1.107.464-.448 0-.813-.175-1.096-.525-.283-.351-.425-.81-.425-1.375Zm.662.025c0 .419.09.747.273.984.181.236.431.355.751.355.42 0 .728-.18.921-.54v-1.698c-.198-.35-.503-.523-.914-.523-.324 0-.577.12-.758.359-.182.238-.273.593-.273 1.063Zm5.242 1.875c-.525 0-.952-.165-1.28-.494-.33-.329-.495-.77-.495-1.32v-.117c0-.366.073-.694.22-.983a1.66 1.66 0 0 1 1.474-.92c.503 0 .895.158 1.174.474.28.317.42.771.42 1.362v.262h-2.627c.01.365.122.66.335.885.215.224.486.336.815.336.234 0 .432-.046.595-.138.163-.09.305-.21.426-.36l.404.3c-.324.475-.811.713-1.461.713Zm-.08-3.314a.906.906 0 0 0-.675.277c-.182.186-.294.447-.336.781h1.94v-.047c-.018-.322-.109-.57-.271-.747-.163-.176-.383-.264-.659-.264Zm2.182 1.408v-.045c0-.362.075-.688.225-.977a1.61 1.61 0 0 1 .622-.67 1.76 1.76 0 0 1 .911-.236c.529 0 .955.174 1.28.523.326.348.489.812.489 1.392v.044c0 .36-.072.682-.217.968-.144.286-.35.51-.618.67a1.785 1.785 0 0 1-.927.237c-.525 0-.95-.174-1.275-.522-.327-.349-.49-.81-.49-1.384Zm.667.03c0 .411.1.74.299.988.2.249.466.373.8.373a.968.968 0 0 0 .802-.377c.198-.253.297-.606.297-1.059 0-.405-.1-.734-.302-.986a.979.979 0 0 0-.805-.377.967.967 0 0 0-.79.373c-.2.248-.301.603-.301 1.066ZM46.787 10.762l-11.709 9.844V42h8.196c1.94 0 3.513-1.763 3.513-3.938v-27.3ZM-2.39 10.762l11.708 9.844V42H1.122c-1.94 0-3.513-1.763-3.513-3.938v-27.3Z"/><path d="m35.075 4.2-12.88 10.828L9.317 4.2v16.406l12.88 10.828 12.88-10.828V4.2Z"/><path d="M-2.39 5.641v5.121l11.708 9.844V4.2L5.66 1.127C4.79.395 3.73 0 2.642 0c-2.78 0-5.033 2.525-5.033 5.641ZM46.787 5.641v5.121l-11.709 9.844V4.2l3.658-3.073C39.607.395 40.666 0 41.754 0c2.78 0 5.033 2.525 5.033 5.641Z"/></g><defs><clipPath id="ea"><path d="M0 0h44v42H0z"/></clipPath></defs></svg></svg>